# xmcd CD database file
#
# Track frame offsets:
#	150
#	8625
#	26582
#	42705
#	60165
#	76995
#	87257
#	99415
#	119630
#	133540
#	153567
#	172442
#	192357
#	213615
#
# Disc length: 2984 seconds
#
# Revision: 0
# Processed by: cddbd v1.5.1PL2 Copyright (c) Steve Scherf et al.
# Submitted via: CDex 1.51
#
DISCID=c00ba60e
DTITLE=イルリメ - 鴎インザハウス
DYEAR=2003
DGENRE=不明
TTITLE0=オープニング
TTITLE1=ブーメランセレモニー
TTITLE2=コール&レスポンス
TTITLE3=閑話休題
TTITLE4=フライング
TTITLE5=S.O.S音頭
TTITLE6=太陽は正午のエール
TTITLE7=目無し
TTITLE8=偶感ハント
TTITLE9=led
TTITLE10=たちんば
TTITLE11=レプリカレシピ
TTITLE12=ドライフラワー
TTITLE13=エンディング
EXTD=YEAR: 2003
EXTT0=
EXTT1=
EXTT2=
EXTT3=
EXTT4=
EXTT5=
EXTT6=
EXTT7=
EXTT8=
EXTT9=
EXTT10=
EXTT11=
EXTT12=
EXTT13=
PLAYORDER=
